<svg width="35" height="24" viewBox="0 0 35 24" fill="none" xmlns="http://www.w3.org/2000/svg">
<path d="M11.7819 20.5185C11.7819 20.1913 11.5617 19.9731 11.2314 19.9731H1.65166C1.32133 19.9731 1.1011 20.1913 1.1011 20.5185C1.1011 20.8458 1.32133 21.064 1.65166 21.064H11.2314C11.5617 21.064 11.7819 20.7913 11.7819 20.5185Z" fill="white"/>
<path d="M3.85392 22.7004H2.7528C2.42246 22.7004 2.20224 22.9185 2.20224 23.2458C2.20224 23.5731 2.42246 23.7913 2.7528 23.7913H3.85392C4.18425 23.7913 4.40447 23.5731 4.40447 23.2458C4.40447 22.9185 4.18425 22.7004 3.85392 22.7004Z" fill="white"/>
<path d="M6.44153 17.7913C6.44153 17.464 6.22131 17.2458 5.89097 17.2458H0.550558C0.220223 17.2458 0 17.464 0 17.7913C0 18.1185 0.220223 18.3367 0.550558 18.3367H5.89097C6.22131 18.3367 6.44153 18.064 6.44153 17.7913Z" fill="white"/>
<path fill-rule="evenodd" clip-rule="evenodd" d="M33.8043 18.7185C33.6391 18.3913 33.3088 18.1185 32.9785 17.9549L28.7942 16.3731L27.0875 15.7731C26.592 15.5549 26.1515 15.2276 25.8763 14.7913L24.4448 12.4458C24.7201 12.3913 24.8853 12.1731 24.8853 11.9004C24.8853 11.5731 24.665 11.3549 24.3347 11.3549H23.7841L23.1235 10.264C23.3987 10.2094 23.5639 9.99127 23.5639 9.71854C23.5639 9.39127 23.3437 9.17309 23.0134 9.17309H22.4628L21.9122 8.30036C22.1325 8.24581 22.2976 8.02763 22.2976 7.80945C22.2976 7.48218 22.0774 7.264 21.7471 7.264H21.2516L20.5358 6.11854C20.5358 6.11854 20.5358 6.064 20.4808 6.064C19.8201 5.30036 18.9392 4.91854 18.0033 5.02763C17.1774 5.13672 16.5168 5.62763 16.2415 6.22763C16.1864 6.39127 16.1864 6.5549 16.2965 6.71854L20.8662 14.464C20.9212 14.5731 21.0313 14.6822 21.1415 14.6822L26.7572 16.8095H26.8122L28.4639 17.4095L32.5931 18.9913C32.7032 19.0458 32.8133 19.1004 32.8683 19.264C33.0886 19.7004 33.0886 20.1367 32.8133 20.5731H23.8392C23.2886 20.5731 22.7381 20.4094 22.2976 20.0822L6.93705 8.79127C6.93705 8.79127 7.15727 8.68218 7.43255 8.30036C7.70783 7.91854 7.81794 7.42763 7.81794 6.93672L7.32244 2.3549L7.98311 1.31854C8.14828 1.10036 8.47861 1.04581 8.69883 1.20945C8.71096 1.22146 8.72575 1.23553 8.74339 1.25231L8.74341 1.25232C8.96607 1.46407 9.64191 2.10678 11.1213 4.48218C11.9471 5.68218 13.2685 6.5549 14.755 6.77309C15.0303 6.82763 15.3606 6.60945 15.4156 6.33672C15.4707 6.06399 15.2505 5.73672 14.9752 5.68218C13.819 5.464 12.7179 4.80945 12.0572 3.82763C10.1303 0.882177 9.57973 0.445813 9.3595 0.282177C8.64378 -0.208732 7.65277 -0.0450956 7.10222 0.663995L3.74381 5.9549C3.52359 6.28218 3.46853 6.664 3.52359 7.04581C3.19325 7.1549 2.86292 7.31854 2.69775 7.64581L1.81685 9.00945C1.32135 9.71854 1.54158 10.7004 2.2573 11.1913C2.68516 11.521 3.52353 12.054 4.73695 12.8255L4.73799 12.8262C4.92951 12.948 5.13037 13.0757 5.34043 13.2094C5.45054 13.264 5.56065 13.3185 5.61571 13.3185C5.78088 13.3185 5.94604 13.2094 6.05615 13.0458C6.22132 12.7731 6.16627 12.4458 5.89099 12.2822C5.41865 11.9702 4.99078 11.6913 4.61091 11.4436L4.61084 11.4436C3.79526 10.9119 3.20096 10.5245 2.86292 10.264C2.64269 10.1004 2.58764 9.82763 2.7528 9.5549L3.57864 8.30036C3.74381 8.08218 4.07414 8.02763 4.29437 8.19127L21.5819 20.9549C22.2426 21.4458 23.0134 21.664 23.7841 21.664H31.3818C30.2257 22.2094 28.629 22.7004 27.2527 22.7004H25.3257H23.7291C22.7931 22.7004 21.8572 22.4276 21.0864 21.9367C17.8932 19.9185 11.9471 16.1549 7.59772 13.3731C7.32244 13.2094 6.9921 13.264 6.82694 13.5367C6.66177 13.8094 6.71682 14.1367 6.9921 14.3004C9.78246 16.0955 13.2407 18.2923 16.205 20.1754C17.7443 21.1533 19.1503 22.0465 20.2606 22.7549H6.05615C5.72582 22.7549 5.5056 22.9731 5.5056 23.3004C5.5056 23.6276 5.72582 23.8458 6.05615 23.8458H23.7291H25.3257H27.1976C29.4549 23.8458 32.7032 22.6458 33.529 21.5004C34.2447 20.5185 34.2998 19.5913 33.8043 18.7185ZM21.637 13.8095L17.3426 6.5549C17.5078 6.39127 17.783 6.22763 18.1134 6.17309C18.4437 6.11854 19.0493 6.17309 19.5999 6.77309L19.9302 7.31854H19.4347C19.1044 7.31854 18.8842 7.53672 18.8842 7.864C18.8842 8.19127 19.1044 8.40945 19.4347 8.40945H20.5909L21.1415 9.28218H20.701C20.3707 9.28218 20.1504 9.50036 20.1504 9.82763C20.1504 10.1549 20.3707 10.3731 20.701 10.3731H21.8021L22.4628 11.4094H22.0223C21.692 11.4094 21.4718 11.6276 21.4718 11.9549C21.4718 12.2822 21.692 12.5004 22.0223 12.5004H23.1235L24.665 14.9004L21.637 13.8095ZM6.38649 3.88218L4.67976 6.5549C4.56965 6.77309 4.6247 7.04581 4.95504 7.31854C5.45054 7.70036 5.72582 7.864 5.72582 7.864C6.18402 8.21707 6.40683 7.87051 6.52485 7.68694C6.53446 7.67199 6.54337 7.65813 6.55166 7.64581C6.66177 7.48218 6.71682 7.264 6.71682 7.04581L6.38649 3.88218Z" fill="white"/>
</svg>
